<svg xmlns="http://www.w3.org/2000/svg" xmlns:xlink="http://www.w3.org/1999/xlink" width="500" zoomAndPan="magnify" viewBox="0 0 375 374.999991" height="500" preserveAspectRatio="xMidYMid meet" version="1.0"><path fill="#6ce5e8" d="M 187.5 37.5 C 189.664062 37.5 191.832031 37.550781 193.996094 37.648438 C 196.160156 37.75 198.320312 37.898438 200.476562 38.101562 C 202.632812 38.300781 204.78125 38.550781 206.929688 38.847656 C 209.074219 39.148438 211.210938 39.496094 213.339844 39.894531 C 215.46875 40.292969 217.585938 40.738281 219.695312 41.234375 C 221.804688 41.730469 223.902344 42.277344 225.984375 42.867188 C 228.066406 43.460938 230.136719 44.101562 232.1875 44.789062 C 234.242188 45.476562 236.28125 46.214844 238.300781 46.996094 C 240.320312 47.777344 242.320312 48.605469 244.300781 49.480469 C 246.28125 50.355469 248.242188 51.277344 250.183594 52.242188 C 252.121094 53.207031 254.035156 54.21875 255.929688 55.273438 C 257.820312 56.324219 259.6875 57.421875 261.53125 58.5625 C 263.371094 59.703125 265.183594 60.886719 266.972656 62.109375 C 268.757812 63.332031 270.515625 64.597656 272.246094 65.902344 C 273.972656 67.210938 275.671875 68.554688 277.335938 69.9375 C 279.003906 71.320312 280.636719 72.742188 282.238281 74.203125 C 283.839844 75.660156 285.40625 77.15625 286.9375 78.6875 C 288.46875 80.21875 289.964844 81.785156 291.421875 83.386719 C 292.882812 84.988281 294.304688 86.621094 295.6875 88.289062 C 297.070312 89.953125 298.414062 91.652344 299.722656 93.378906 C 301.027344 95.109375 302.292969 96.867188 303.515625 98.652344 C 304.738281 100.441406 305.921875 102.253906 307.0625 104.09375 C 308.203125 105.9375 309.300781 107.804688 310.351562 109.695312 C 311.40625 111.589844 312.417969 113.503906 313.382812 115.441406 C 314.347656 117.382812 315.269531 119.34375 316.144531 121.324219 C 317.019531 123.304688 317.847656 125.304688 318.628906 127.324219 C 319.410156 129.34375 320.148438 131.382812 320.835938 133.4375 C 321.523438 135.488281 322.164062 137.558594 322.757812 139.640625 C 323.347656 141.722656 323.894531 143.820312 324.390625 145.929688 C 324.886719 148.039062 325.332031 150.15625 325.730469 152.285156 C 326.128906 154.414062 326.476562 156.550781 326.777344 158.695312 C 327.074219 160.84375 327.324219 162.992188 327.523438 165.148438 L 257.511719 171.636719 C 257.3125 169.480469 257.011719 167.335938 256.617188 165.207031 C 256.21875 163.074219 255.722656 160.96875 255.128906 158.882812 C 254.535156 156.796875 253.847656 154.746094 253.0625 152.726562 C 252.28125 150.703125 251.40625 148.722656 250.441406 146.785156 C 249.476562 144.84375 248.421875 142.953125 247.28125 141.109375 C 246.140625 139.269531 244.917969 137.480469 243.609375 135.753906 C 242.304688 134.023438 240.921875 132.355469 239.460938 130.753906 C 238 129.152344 236.472656 127.625 234.871094 126.164062 C 233.269531 124.703125 231.601562 123.320312 229.871094 122.015625 C 228.144531 120.707031 226.355469 119.484375 224.515625 118.34375 C 222.671875 117.203125 220.78125 116.148438 218.839844 115.183594 C 216.902344 114.21875 214.921875 113.34375 212.898438 112.558594 C 210.878906 111.777344 208.828125 111.089844 206.742188 110.496094 C 204.65625 109.902344 202.550781 109.40625 200.417969 109.007812 C 198.289062 108.613281 196.144531 108.3125 193.988281 108.113281 C 191.828125 107.914062 189.667969 107.8125 187.5 107.8125 Z M 187.5 37.5 " fill-opacity="1" fill-rule="nonzero"/><path fill="#41b8d5" d="M 327.523438 165.148438 C 327.925781 169.464844 328.125 173.789062 328.125 178.125 C 328.125 182.460938 327.925781 186.785156 327.523438 191.101562 C 327.125 195.417969 326.527344 199.703125 325.730469 203.964844 C 324.933594 208.226562 323.941406 212.441406 322.757812 216.609375 C 321.570312 220.777344 320.195312 224.882812 318.628906 228.925781 C 317.0625 232.964844 315.3125 236.925781 313.382812 240.808594 C 311.449219 244.6875 309.34375 248.46875 307.0625 252.15625 C 304.78125 255.839844 302.332031 259.410156 299.722656 262.871094 L 243.609375 220.496094 C 246.226562 217.03125 248.503906 213.355469 250.441406 209.464844 C 252.378906 205.578125 253.941406 201.542969 255.128906 197.367188 C 256.316406 193.1875 257.113281 188.9375 257.511719 184.613281 C 257.914062 180.289062 257.914062 175.960938 257.511719 171.636719 Z M 327.523438 165.148438 " fill-opacity="1" fill-rule="nonzero"/><path fill="#2d8bba" d="M 299.722656 262.871094 C 297.109375 266.328125 294.34375 269.660156 291.421875 272.863281 C 288.503906 276.066406 285.441406 279.128906 282.238281 282.046875 C 279.035156 284.96875 275.703125 287.734375 272.246094 290.347656 C 268.785156 292.957031 265.214844 295.40625 261.53125 297.6875 C 257.84375 299.96875 254.0625 302.074219 250.183594 304.007812 C 246.300781 305.9375 242.339844 307.6875 238.300781 309.253906 C 234.257812 310.820312 230.152344 312.195312 225.984375 313.382812 C 221.816406 314.566406 217.601562 315.558594 213.339844 316.355469 L 200.417969 247.242188 C 204.691406 246.441406 208.847656 245.257812 212.898438 243.6875 C 216.949219 242.121094 220.820312 240.191406 224.515625 237.90625 C 228.207031 235.621094 231.660156 233.011719 234.871094 230.085938 C 238.078125 227.160156 240.992188 223.964844 243.609375 220.496094 Z M 299.722656 262.871094 " fill-opacity="1" fill-rule="nonzero"/><path fill="#2f5f98" d="M 213.339844 316.355469 C 209.078125 317.152344 204.792969 317.75 200.476562 318.148438 C 196.160156 318.550781 191.835938 318.75 187.5 318.75 C 183.164062 318.75 178.839844 318.550781 174.523438 318.148438 C 170.207031 317.75 165.921875 317.152344 161.660156 316.355469 C 157.398438 315.558594 153.183594 314.566406 149.015625 313.382812 C 144.847656 312.195312 140.742188 310.820312 136.699219 309.253906 C 132.660156 307.6875 128.699219 305.9375 124.816406 304.007812 C 120.9375 302.074219 117.15625 299.96875 113.46875 297.6875 L 150.484375 237.90625 C 154.179688 240.191406 158.050781 242.121094 162.101562 243.6875 C 166.152344 245.257812 170.308594 246.441406 174.582031 247.242188 C 178.851562 248.039062 183.15625 248.4375 187.5 248.4375 C 191.84375 248.4375 196.148438 248.039062 200.417969 247.242188 Z M 213.339844 316.355469 " fill-opacity="1" fill-rule="nonzero"/><path fill="#31356e" d="M 113.46875 297.6875 C 110.246094 295.691406 107.109375 293.566406 104.054688 291.316406 C 101.003906 289.066406 98.046875 286.699219 95.1875 284.210938 C 92.328125 281.71875 89.570312 279.121094 86.921875 276.40625 C 84.273438 273.695312 81.734375 270.882812 79.3125 267.964844 C 76.890625 265.046875 74.589844 262.035156 72.410156 258.933594 C 70.234375 255.832031 68.183594 252.644531 66.261719 249.375 C 64.339844 246.105469 62.554688 242.765625 60.902344 239.351562 C 59.253906 235.9375 57.742188 232.464844 56.371094 228.929688 C 55.003906 225.390625 53.777344 221.808594 52.699219 218.171875 C 51.617188 214.539062 50.6875 210.863281 49.902344 207.15625 C 49.121094 203.445312 48.488281 199.710938 48.007812 195.949219 C 47.527344 192.1875 47.199219 188.414062 47.023438 184.625 C 46.851562 180.835938 46.828125 177.046875 46.960938 173.257812 C 47.089844 169.46875 47.375 165.691406 47.8125 161.925781 C 48.25 158.160156 48.835938 154.414062 49.574219 150.695312 C 50.316406 146.976562 51.203125 143.296875 52.242188 139.648438 C 53.277344 136 54.460938 132.402344 55.789062 128.851562 C 57.121094 125.300781 58.589844 121.808594 60.199219 118.375 C 61.8125 114.941406 63.558594 111.582031 65.441406 108.289062 C 67.324219 104.996094 69.335938 101.789062 71.480469 98.660156 C 73.621094 95.53125 75.886719 92.496094 78.277344 89.550781 C 80.664062 86.605469 83.167969 83.761719 85.785156 81.019531 C 88.40625 78.277344 91.128906 75.644531 93.960938 73.121094 C 96.792969 70.597656 99.71875 68.195312 102.746094 65.910156 C 105.773438 63.625 108.886719 61.464844 112.085938 59.433594 C 115.285156 57.398438 118.5625 55.496094 121.917969 53.730469 C 125.269531 51.960938 128.691406 50.332031 132.175781 48.839844 C 135.664062 47.347656 139.203125 46 142.800781 44.792969 C 146.394531 43.589844 150.03125 42.53125 153.710938 41.621094 C 157.394531 40.707031 161.105469 39.949219 164.847656 39.335938 C 168.589844 38.726562 172.351562 38.265625 176.128906 37.960938 C 179.910156 37.652344 183.695312 37.5 187.484375 37.5 L 187.492188 107.8125 C 185.597656 107.8125 183.703125 107.890625 181.816406 108.042969 C 179.925781 108.195312 178.042969 108.425781 176.171875 108.730469 C 174.300781 109.035156 172.445312 109.417969 170.605469 109.871094 C 168.765625 110.328125 166.945312 110.855469 165.148438 111.460938 C 163.351562 112.0625 161.582031 112.734375 159.839844 113.480469 C 158.09375 114.226562 156.386719 115.042969 154.707031 115.925781 C 153.03125 116.8125 151.394531 117.761719 149.792969 118.777344 C 148.191406 119.796875 146.636719 120.875 145.121094 122.019531 C 143.609375 123.160156 142.144531 124.363281 140.730469 125.625 C 139.316406 126.882812 137.953125 128.199219 136.644531 129.570312 C 135.332031 130.941406 134.082031 132.363281 132.886719 133.835938 C 131.695312 135.308594 130.5625 136.828125 129.488281 138.390625 C 128.417969 139.957031 127.414062 141.5625 126.46875 143.207031 C 125.527344 144.851562 124.65625 146.535156 123.851562 148.25 C 123.042969 149.964844 122.308594 151.710938 121.644531 153.488281 C 120.980469 155.261719 120.390625 157.0625 119.871094 158.886719 C 119.351562 160.710938 118.90625 162.550781 118.539062 164.410156 C 118.167969 166.269531 117.875 168.140625 117.65625 170.023438 C 117.4375 171.910156 117.296875 173.796875 117.230469 175.691406 C 117.164062 177.585938 117.175781 179.480469 117.261719 181.375 C 117.351562 183.269531 117.515625 185.15625 117.753906 187.035156 C 117.996094 188.917969 118.3125 190.785156 118.703125 192.640625 C 119.09375 194.496094 119.558594 196.332031 120.097656 198.148438 C 120.640625 199.964844 121.25 201.757812 121.9375 203.527344 C 122.621094 205.292969 123.375 207.03125 124.203125 208.738281 C 125.027344 210.445312 125.921875 212.117188 126.878906 213.75 C 127.839844 215.382812 128.867188 216.976562 129.957031 218.53125 C 131.046875 220.082031 132.195312 221.585938 133.40625 223.042969 C 134.617188 224.503906 135.886719 225.910156 137.210938 227.265625 C 138.535156 228.621094 139.914062 229.921875 141.34375 231.167969 C 142.773438 232.410156 144.253906 233.597656 145.777344 234.722656 C 147.304688 235.847656 148.875 236.90625 150.484375 237.90625 Z M 113.46875 297.6875 " fill-opacity="1" fill-rule="nonzero"/></svg>